<?xml version="1.0" standalone="no"?>
<!DOCTYPE svg PUBLIC "-//W3C//DTD SVG 20010904//EN"
 "http://www.w3.org/TR/2001/REC-SVG-20010904/DTD/svg10.dtd">
<svg version="1.0" xmlns="http://www.w3.org/2000/svg"
 width="512.000000pt" height="512.000000pt" viewBox="0 0 512.000000 512.000000"
 preserveAspectRatio="xMidYMid meet">

<g transform="translate(0.000000,512.000000) scale(0.100000,-0.100000)"
fill="#8a21ca" stroke="none">
<path d="M1309 4667 c-680 -249 -1244 -459 -1254 -467 -17 -14 -18 -91 -13
-1588 5 -1521 6 -1575 24 -1592 11 -9 554 -230 1208 -491 1004 -400 1189 -477
1197 -496 10 -27 4 -25 93 -28 65 -2 70 0 84 25 13 22 179 91 1214 504 798
319 1202 485 1208 497 6 11 10 597 10 1588 l0 1571 -22 14 c-28 18 -2482 916
-2500 915 -7 0 -569 -204 -1249 -452z m2358 -144 c606 -219 1099 -401 1095
-404 -4 -3 -500 -203 -1103 -444 l-1096 -438 -1084 433 c-596 238 -1088 436
-1092 440 -5 4 61 33 145 64 84 31 572 211 1083 400 512 189 935 345 940 345
6 1 506 -177 1112 -396z m-2312 -1007 l1110 -444 3 -1407 c2 -1338 1 -1407
-15 -1401 -10 4 -512 203 -1115 444 l-1098 437 0 1408 c0 774 1 1407 3 1407 1
0 502 -200 1112 -444z m3533 -963 l-3 -1408 -1110 -442 c-610 -244 -1111 -443
-1112 -443 -2 0 -3 633 -3 1408 l1 1407 1107 442 c609 243 1110 442 1115 442
4 1 6 -632 5 -1406z"/>
<path d="M1805 4330 c-126 -19 -212 -57 -268 -119 -87 -96 -17 -187 163 -213
188 -28 428 66 456 177 16 66 -48 126 -162 150 -74 16 -111 17 -189 5z"/>
<path d="M2978 4225 c-137 -34 -238 -113 -238 -185 0 -113 216 -173 426 -120
231 59 308 208 147 287 -52 25 -70 28 -168 30 -70 2 -131 -3 -167 -12z"/>
<path d="M572 3320 c-84 -19 -126 -112 -98 -220 30 -115 105 -207 209 -256
182 -85 305 74 208 271 -68 137 -211 229 -319 205z"/>
<path d="M1879 2800 c-48 -14 -69 -31 -90 -72 -45 -88 -4 -230 95 -328 120
-120 261 -132 327 -28 27 44 22 152 -11 221 -63 132 -224 237 -321 207z"/>
<path d="M1191 2332 c-54 -29 -73 -74 -68 -157 4 -86 31 -146 99 -220 87 -96
221 -137 286 -88 53 39 67 70 67 141 0 159 -145 326 -292 339 -45 3 -66 0 -92
-15z"/>
<path d="M540 1943 c-108 -56 -96 -242 23 -379 38 -44 131 -97 186 -108 147
-27 220 128 140 299 -69 146 -246 242 -349 188z"/>
<path d="M1840 1418 c-52 -35 -72 -81 -68 -153 14 -239 316 -429 432 -272 17
23 21 43 21 105 0 64 -5 87 -28 135 -77 156 -260 251 -357 185z"/>
<path d="M3838 2389 c-131 -31 -247 -189 -256 -349 -5 -88 7 -135 46 -182 55
-65 127 -74 220 -27 163 81 257 322 183 468 -24 46 -50 70 -98 87 -43 15 -45
15 -95 3z"/>
</g>
</svg>
